<svg version="1.1" xmlns="http://www.w3.org/2000/svg" xmlns:xlink="http://www.w3.org/1999/xlink" width="241.81768" height="132.48034" viewBox="0,0,241.81768,132.48034"><g transform="translate(-119.01481,-178.59772)"><g data-paper-data="{&quot;isPaintingLayer&quot;:true}" fill-rule="nonzero" stroke-linecap="butt" stroke-linejoin="miter" stroke-miterlimit="10" stroke-dasharray="" stroke-dashoffset="0" style="mix-blend-mode: normal"><path d="M119.01481,274.96567v-95.36156h241.71908v95.36156z" fill="#e8e8e8" stroke="none" stroke-width="0"/><g fill="#e8e8e8" stroke-width="0"><path d="M352.8977,274.07329v36.97947h-226.19316v-36.97947z" data-paper-data="{&quot;index&quot;:null}" stroke="#000000"/><g data-paper-data="{&quot;index&quot;:null}" stroke="none"><path d="M127.05494,295.08142c4.41154,0 7.9878,3.57627 7.9878,7.98781c0,4.41154 -3.57626,7.9878 -7.9878,7.9878c-4.41155,0 -7.98781,-3.57626 -7.98781,-7.9878c0,-4.41155 3.57627,-7.98781 7.98781,-7.98781z"/><path d="M136.06325,274.11363v29.4163h-16.98533v-29.4163z"/></g><g data-paper-data="{&quot;index&quot;:null}" stroke="none"><path d="M352.82416,295.10244c4.41155,0 7.98781,3.57626 7.98781,7.9878c0,4.41155 -3.57627,7.98781 -7.98781,7.98781c-4.41154,0 -7.9878,-3.57627 -7.9878,-7.98781c0,-4.41154 3.57626,-7.9878 7.9878,-7.9878z"/><path d="M360.83249,274.08722v29.43895h-13.46154v-29.43895z"/></g></g><text transform="translate(122.36259,209.49881) scale(0.71037,0.71037)" font-size="40" xml:space="preserve" fill="#000000" fill-rule="nonzero" stroke="none" stroke-width="1" stroke-linecap="butt" stroke-linejoin="miter" stroke-miterlimit="10" stroke-dasharray="" stroke-dashoffset="0" font-family="Sans Serif" font-weight="normal" text-anchor="start" style="mix-blend-mode: normal"><tspan x="0" dy="0">测试页面</tspan></text><text transform="translate(124.878,232.34334) scale(0.48621,0.48621)" font-size="40" xml:space="preserve" fill="#000000" fill-rule="nonzero" stroke="none" stroke-width="1" stroke-linecap="butt" stroke-linejoin="miter" stroke-miterlimit="10" stroke-dasharray="" stroke-dashoffset="0" font-family="Sans Serif" font-weight="normal" text-anchor="start" style="mix-blend-mode: normal"><tspan x="0" dy="0">这是测试页面。</tspan></text><text transform="translate(126.87575,256.66431) scale(0.47364,0.47364)" font-size="40" xml:space="preserve" fill="#000000" fill-rule="nonzero" stroke="none" stroke-width="1" stroke-linecap="butt" stroke-linejoin="miter" stroke-miterlimit="10" stroke-dasharray="" stroke-dashoffset="0" font-family="Sans Serif" font-weight="normal" text-anchor="start" style="mix-blend-mode: normal"><tspan x="0" dy="0">你能拖动这个“窗口”的标题</tspan><tspan x="0" dy="46.150000000000006px">栏。</tspan></text><text transform="translate(127.27993,303.67681) scale(0.47881,0.47881)" font-size="40" xml:space="preserve" fill="#000000" fill-rule="nonzero" stroke="none" stroke-width="1" stroke-linecap="butt" stroke-linejoin="miter" stroke-miterlimit="10" stroke-dasharray="" stroke-dashoffset="0" font-family="Sans Serif" font-weight="normal" text-anchor="start" style="mix-blend-mode: normal"><tspan x="0" dy="0">感谢使用！</tspan></text></g></g></svg>