<svg version="1.1" xmlns="http://www.w3.org/2000/svg" xmlns:xlink="http://www.w3.org/1999/xlink" width="241.76536" height="37.00476" viewBox="0,0,241.76536,37.00476"><g transform="translate(-119.11732,-142.96264)"><g data-paper-data="{&quot;isPaintingLayer&quot;:true}" fill-rule="nonzero" stroke-linecap="butt" stroke-linejoin="miter" stroke-miterlimit="10" stroke-dasharray="" stroke-dashoffset="0" style="mix-blend-mode: normal"><path d="M126.75473,179.9674v-36.97947h226.19316v36.97947z" fill="#ffffff" stroke="#000000" stroke-width="0"/><g fill="#ffffff" stroke="none" stroke-width="0"><path d="M119.11732,150.97146c0,-4.41154 3.57626,-7.9878 7.98781,-7.9878c4.41154,0 7.9878,3.57626 7.9878,7.9878c0,4.41154 -3.57626,7.98781 -7.9878,7.98781c-4.41154,0 -7.98781,-3.57626 -7.98781,-7.98781z"/><path d="M119.12811,179.92705v-29.4163h16.98533v29.4163z"/></g><g fill="#ffffff" stroke="none" stroke-width="0"><path d="M344.88655,150.95045c0,-4.41154 3.57626,-7.98781 7.9878,-7.98781c4.41154,0 7.98781,3.57626 7.98781,7.98781c0,4.41154 -3.57626,7.9878 -7.98781,7.9878c-4.41154,0 -7.9878,-3.57626 -7.9878,-7.9878z"/><path d="M347.42114,179.95347v-29.43895h13.46154v29.43895z"/></g><text transform="translate(126.90002,167.99097) scale(0.5,0.5)" font-size="40" xml:space="preserve" fill="#000000" fill-rule="nonzero" stroke="none" stroke-width="1" stroke-linecap="butt" stroke-linejoin="miter" stroke-miterlimit="10" stroke-dasharray="" stroke-dashoffset="0" font-family="Sans Serif" font-weight="normal" text-anchor="start" style="mix-blend-mode: normal"><tspan x="0" dy="0">测试页面</tspan></text></g></g></svg>